#!OML:ASF I:\Actors\actors\Patient Classification 1\Patient 1\Session 1\Subject1.ASF
:FULLY-SPECIFIED
:DEGREES
248
root -0.716017 17.6509 7.0003 9.69587 -11.1171 -7.55857
lowerback 6.19725 -2.51836 3.19764
upperback -6.68689 -2.86059 2.18446
thorax -10.6831 -1.53622 0.996722
lowerneck -14.5402 2.3341 5.49628
upperneck 19.2714 0.260663 7.35728
head 8.46321 1.26657 1.5954
rclavicle -2.42517e-014 2.70347e-014
rhumerus 35.476 70.568 -46.5423
rradius 119.684
rwrist -31.73
rhand -6.13742 -56.9987
rfingers 7.12502
rthumb 19.7003 -86.0204
lclavicle -2.42517e-014 2.70347e-014
lhumerus 28.7734 8.27927 72.4774
lradius 62.7406
lwrist 69.9502
lhand -7.57667 5.22965
lfingers 7.12502
lthumb 18.3161 34.3873
rfemur -8.65716 23.7134 23.2652
rtibia 3.83831
rfoot -10.2365 -11.7737
rtoes -2.79739
lfemur 3.15986 -37.3068 -11.621
ltibia -3.05414
lfoot -22.7138 51.5292
ltoes 13.9432
249
root -0.730772 17.6467 6.96957 10.3278 -10.6098 -7.62778
lowerback 6.26189 -2.5488 3.1897
upperback -6.75844 -2.90135 2.14646
thorax -10.8048 -1.55746 0.973908
lowerneck -14.6675 2.43082 5.58333
upperneck 18.8387 0.450834 7.12677
head 8.33653 1.3253 1.51924
rclavicle 5.15598e-014 -1.03368e-014
rhumerus 34.3764 71.7087 -47.3847
rradius 119.922
rwrist -31.3405
rhand -6.00685 -57.0227
rfingers 7.12502
rthumb 19.8258 -86.0316
lclavicle 5.15598e-014 -1.03368e-014
lhumerus 26.8452 8.27453 73.3424
lradius 62.6597
lwrist 71.1605
lhand -5.93685 5.4622
lfingers 7.12502
lthumb 19.8931 34.4641
rfemur -9.19655 24.0331 23.0782
rtibia 3.31121
rfoot -10.0447 -12.5153
rtoes -2.42868
lfemur 2.68118 -39.6884 -11.2121
ltibia -3.35673
lfoot -24.9328 53.0789
ltoes 15.7938
250
root -0.745616 17.6407 6.94347 10.762 -10.1307 -7.70863
lowerback 5.8268 -2.6296 3.06137
upperback -6.35872 -3.04755 2.22287
thorax -10.0849 -1.61354 1.10486
lowerneck -15.0927 2.65496 5.58168
upperneck 18.3072 0.82243 6.86991
head 8.22772 1.46285 1.47319
rclavicle -1.43373e-014 -4.77083e-015
rhumerus 35.4974 72.218 -46.1357
rradius 120.174
rwrist -31.3263
rhand -5.84154 -57.3527
rfingers 7.12502
rthumb 19.9847 -86.345
lclavicle -1.43373e-014 -4.77083e-015
lhumerus 25.6079 8.33011 74.0497
lradius 62.6499
lwrist 71.3523
lhand -5.99769 5.45861
lfingers 7.12502
lthumb 19.8346 34.4665
rfemur -9.46214 24.298 23.002
rtibia 2.76552
rfoot -9.91579 -13.1864
rtoes -1.84475
lfemur 2.46116 -42.0127 -10.9459
ltibia -3.56698
lfoot -27.1619 54.5451
ltoes 17.1622
251
root -0.760084 17.6318 6.92319 10.9862 -9.67362 -7.84087
lowerback 6.36523 -2.66546 3.26338
upperback -6.58368 -3.04715 2.16807
thorax -10.6764 -1.63059 0.976402
lowerneck -15.0053 2.75032 5.88233
upperneck 18.3643 0.990267 6.38065
head 8.23336 1.51523 1.27936
rclavicle 5.15349e-014 4.77083e-014
rhumerus 29.5203 73.1177 -51.9215
rradius 120.088
rwrist -30.9446
rhand -5.49668 -57.294
rfingers 7.12502
rthumb 20.3161 -86.2514
lclavicle 5.15349e-014 4.77083e-014
lhumerus 23.462 7.70687 74.4734
lradius 62.7433
lwrist 70.9811
lhand -6.49762 5.60091
lfingers 7.12502
lthumb 19.3539 34.6578
rfemur -9.40897 24.5765 23.0994
rtibia 2.19106
rfoot -9.83871 -13.8553
rtoes -1.3506
lfemur 2.58502 -44.1879 -10.8067
ltibia -3.8235
lfoot -29.0374 55.9358
ltoes 18.0747
252
root -0.772689 17.6204 6.91083 11.0534 -9.26466 -7.91691
lowerback 6.13944 -2.73705 3.12495
upperback -6.24177 -3.16577 2.30528
thorax -10.1429 -1.66979 1.18748
lowerneck -15.1808 2.99347 6.12524
upperneck 18.1059 1.41237 5.70894
head 8.17914 1.65812 1.06256
rclavicle 1.03368e-014 -1.43125e-014
rhumerus 33.9798 73.6222 -47.2739
rradius 120.402
rwrist -31.9848
rhand -7.0999 -57.9385
rfingers 7.12502
rthumb 18.7747 -87.0525
lclavicle 1.03368e-014 -1.43125e-014
lhumerus 22.3782 7.81824 75.28
lradius 62.6546
lwrist 71.0563
lhand -5.75057 5.31922
lfingers 7.12502
lthumb 20.0721 34.3024
rfemur -9.13801 24.8714 23.2094
rtibia 1.59602
rfoot -9.79333 -14.5082
rtoes -1.26955
lfemur 2.90677 -46.0179 -10.8794
ltibia -4.06034
lfoot -30.4864 57.1549
ltoes 18.6664
253
root -0.785162 17.6102 6.90067 11.0247 -8.9421 -8.01465
lowerback 6.8435 -2.72671 3.34709
upperback -6.57584 -3.08793 2.25011
thorax -10.9584 -1.65082 1.05202
lowerneck -14.8622 3.1075 6.28231
upperneck 18.3638 1.59601 5.47042
head 8.21222 1.73707 0.977177
rclavicle -6.72886e-014 -2.8625e-014
rhumerus 32.2182 74.5796 -48.7878
rradius 120.471
rwrist -32.6781
rhand -8.11742 -58.8384
rfingers 7.12502
rthumb 17.7959 -88.0441
lclavicle -6.72886e-014 -2.8625e-014
lhumerus 20.435 7.31403 75.8398
lradius 62.6832
lwrist 71.2044
lhand -5.29137 5.31839
lfingers 7.12502
lthumb 20.5134 34.2547
rfemur -8.83526 25.0208 23.401
rtibia 1.14801
rfoot -9.79842 -14.9148
rtoes -1.70385
lfemur 3.18702 -47.097 -10.8964
ltibia -4.22113
lfoot -31.3556 57.8277
ltoes 19.0035
254
root -0.799531 17.6026 6.89264 10.9438 -8.76318 -8.22835
lowerback 7.07703 -2.66505 3.63779
upperback -6.60609 -2.96144 2.19057
thorax -11.154 -1.61479 0.820658
lowerneck -14.5666 3.22113 6.39218
upperneck 18.4145 1.76789 5.39596
head 8.17892 1.81668 0.949704
rclavicle 3.42282e-014 3.18055e-015
rhumerus 30.1533 74.8872 -50.7985
rradius 120.499
rwrist -32.6615
rhand -7.27185 -59.6377
rfingers 7.12502
rthumb 18.6093 -88.7676
lclavicle 3.42282e-014 3.18055e-015
lhumerus 19.185 6.81883 76.3242
lradius 62.7294
lwrist 71.2645
lhand -5.2397 5.97986
lfingers 7.12502
lthumb 20.5631 34.9108
rfemur -8.58235 25.0227 23.7776
rtibia 0.939067
rfoot -9.83897 -15.0151
rtoes -2.47965
lfemur 3.412 -47.3685 -10.7129
ltibia -4.34819
lfoot -31.5634 57.9332
ltoes 19.1652
255
root -0.812787 17.598 6.89031 10.8806 -8.69174 -8.41325
lowerback 7.0136 -2.57643 3.82967
upperback -6.54894 -2.82499 2.16759
thorax -11.0609 -1.56457 0.659928
lowerneck -14.4931 3.30798 6.57939
upperneck 18.7699 1.87485 5.17921
head 8.29074 1.87036 0.863957
rclavicle -2.85753e-015 3.29983e-014
rhumerus 29.2131 75.0655 -51.6547
rradius 120.496
rwrist -32.7331
rhand -7.03551 -60.1224
rfingers 7.12502
rthumb 18.8367 -89.2303
lclavicle -2.85753e-015 3.29983e-014
lhumerus 18.3523 6.38729 76.7887
lradius 62.7296
lwrist 71.3309
lhand -5.20258 6.39549
lfingers 7.12502
lthumb 20.5988 35.3225
rfemur -8.44178 24.9839 24.112
rtibia 0.915621
rfoot -9.90018 -14.9762
rtoes -3.01798
lfemur 3.50348 -47.1084 -10.4743
ltibia -4.42431
lfoot -31.0356 57.7487
ltoes 18.9474
256
root -0.824845 17.5974 6.89265 10.8171 -8.62849 -8.46703
lowerback 6.90989 -2.49772 3.86058
upperback -6.56557 -2.7195 2.17259
thorax -11.0157 -1.5162 0.625614
lowerneck -14.4808 3.38028 6.69689
upperneck 19.3882 1.96093 4.94921
head 8.50237 1.91744 0.787879
rclavicle -9.05713e-015 -4.37326e-015
rhumerus 28.5396 75.2229 -52.2351
rradius 120.506
rwrist -32.8286
rhand -7.07379 -60.6228
rfingers 7.12502
rthumb 18.7998 -89.7343
lclavicle -9.05713e-015 -4.37326e-015
lhumerus 17.6904 5.95211 77.2016
lradius 62.6389
lwrist 71.3053
lhand -5.08567 6.32208
lfingers 7.12502
lthumb 20.7111 35.2369
rfemur -8.36233 24.9392 24.2801
rtibia 0.981121
rfoot -10.0002 -14.929
rtoes -2.83989
lfemur 3.43367 -46.5903 -10.2931
ltibia -4.40262
lfoot -30.0189 57.3792
ltoes 18.3578
257
root -0.837635 17.6001 6.89782 10.7161 -8.57485 -8.47832
lowerback 6.57142 -2.4425 3.79367
upperback -6.44253 -2.67178 2.20859
thorax -10.6654 -1.48487 0.669892
lowerneck -14.4365 3.49798 6.62849
upperneck 19.7778 2.123 4.94619
head 8.62683 2.00119 0.822756
rclavicle -4.49253e-014 -1.39149e-014
rhumerus 28.9146 75.1381 -51.9181
rradius 120.524
rwrist -33.0482
rhand -6.8813 -60.8112
rfingers 7.12502
rthumb 18.985 -89.9047
lclavicle -4.49253e-014 -1.39149e-014
lhumerus 17.5183 5.60955 77.5041
lradius 62.4674
lwrist 71.29
lhand -5.11576 6.32484
lfingers 7.12502
lthumb 20.6822 35.2428
rfemur -8.27184 24.7628 24.4222
rtibia 1.09218
rfoot -10.0424 -14.7742
rtoes -2.34073
lfemur 3.39888 -46.0619 -10.2007
ltibia -4.33332
lfoot -29.238 56.9418
ltoes 18.0195
